<?xml version="1.0" encoding="UTF-8"?><svg id="a" xmlns="http://www.w3.org/2000/svg" viewBox="0 0 46.51 61.23"><defs><style>.b{stroke-width:1.5px;}.b,.c,.d{stroke-miterlimit:10;}.b,.d{fill:none;stroke:#fff;}.e,.c{fill:#231f20;}.c{stroke:#231f20;stroke-width:2px;}</style></defs><path class="e" d="M27.03,27.01v24.12l6.05,.29v5.76H14v-5.47l2.38-.22c.72-.1,1.25-.3,1.58-.61,.33-.31,.5-.9,.5-1.76V18.23c0-4.7,1.08-8.09,3.24-10.15,2.02-1.97,4.97-2.95,8.86-2.95s7.34,.84,10.37,2.52l-2.09,5.76c-2.3-1.2-4.46-1.8-6.48-1.8s-3.41,.49-4.18,1.48c-.77,.98-1.15,2.48-1.15,4.5v3.38"/><g><path class="c" d="M2.9,31.16l6.26,.77s1.62,4.25,6.75,4.66c0,0,.39-2.13,.98-2.23,.59-.1,5.96,2.18,6.67,2.03s11.36-1.46,18.62-13.56l-7.86-.02-2.97,1.63-.66-1.93s-1.87-.57-10.14,.58l-3.33,3.44-1.16-1.36s-2.39,2.45-6.91,6.75"/><path class="b" d="M34.32,26.48s-12.79,7.54-31.18,2.96"/><ellipse class="d" cx="39.81" cy="31.69" rx=".28" ry=".25"/></g></svg>