<?xml version="1.0" encoding="UTF-8"?><svg id="a" xmlns="http://www.w3.org/2000/svg" viewBox="0 0 260.92 70.26"><defs><style>.b{stroke-width:1.5px;}.b,.c,.d{stroke-miterlimit:10;}.b,.d{fill:none;stroke:#fff;}.e,.c{fill:#231f20;}.c{stroke:#231f20;stroke-width:2px;}</style></defs><path class="e" d="M61.3,21.43c3.6,0,6.46,.88,8.57,2.63,2.11,1.75,3.17,4.21,3.17,7.38,0,2.11-.46,3.97-1.37,5.58-.91,1.61-2.04,2.87-3.38,3.78-1.34,.91-2.98,1.66-4.9,2.23-3.22,.96-6.84,1.44-10.87,1.44,.14,2.54,.94,4.6,2.38,6.16,1.44,1.56,3.65,2.34,6.62,2.34s5.95-1.06,8.93-3.17l2.74,5.83c-.96,.86-2.58,1.75-4.86,2.66-2.28,.91-4.88,1.37-7.81,1.37-5.86,0-10.15-1.62-12.89-4.86-2.74-3.24-4.1-7.69-4.1-13.36s1.56-10.42,4.68-14.26c3.12-3.84,7.49-5.76,13.1-5.76Zm-3.28,16.45c1.75-.31,3.37-1.01,4.86-2.09,1.49-1.08,2.23-2.36,2.23-3.85,0-2.93-1.44-4.39-4.32-4.39-2.69,0-4.75,1.07-6.19,3.2-1.44,2.14-2.23,4.69-2.38,7.67,2.11-.05,4.04-.23,5.8-.54Z"/><path class="e" d="M110.41,23.95v26.78c0,.77,.13,1.3,.4,1.58s.73,.46,1.4,.5l2.3,.14v5.76h-11.45v-4.18l-.22-.07c-2.4,3.46-5.69,5.18-9.86,5.18-4.9,0-8.52-1.56-10.87-4.68-2.35-3.12-3.53-7.39-3.53-12.82,0-6.53,1.58-11.62,4.75-15.26,3.17-3.65,7.92-5.47,14.26-5.47,4.08,0,8.35,.84,12.82,2.52Zm-8.35,23.33V28.63c-1.34-.62-3.19-.94-5.54-.94-3.21,0-5.54,1.3-6.98,3.89-1.44,2.59-2.16,6.02-2.16,10.3,0,7.78,2.5,11.66,7.49,11.66,2.11,0,3.84-.64,5.18-1.91,1.34-1.27,2.02-2.72,2.02-4.36Z"/><path class="e" d="M125.45,14.88h4.68v7.63h9.58l-.72,6.05h-8.86v18.94c0,2.11,.38,3.59,1.15,4.43,.77,.84,1.96,1.26,3.56,1.26s3.23-.5,4.86-1.51l2.16,5.54c-2.4,1.68-5.45,2.52-9.14,2.52-2.16,0-3.98-.28-5.47-.83-1.49-.55-2.59-1.16-3.31-1.84-.72-.67-1.27-1.66-1.66-2.95-.38-1.3-.6-2.32-.65-3.06s-.07-1.84-.07-3.28V28.56h-5.11l.72-5.26c2.26-.19,3.96-1,5.11-2.41,1.15-1.42,2.21-3.42,3.17-6.01Z"/><path class="e" d="M149,50.67V15.6c0-.77-.13-1.3-.4-1.58-.26-.29-.73-.46-1.4-.5l-2.52-.14V7.39h12.82V26.76c2.5-3.55,6-5.33,10.51-5.33,3.65,0,6.47,1.04,8.46,3.13,1.99,2.09,2.99,5.22,2.99,9.4v18.79l4.1,.22v5.76h-17.14v-5.47l2.38-.22c.72-.1,1.25-.3,1.58-.61,.33-.31,.5-.9,.5-1.76v-14.83c0-2.5-.4-4.42-1.19-5.76-.79-1.34-2.33-2.02-4.61-2.02s-4.1,.71-5.47,2.12c-1.37,1.42-2.05,3.13-2.05,5.15v17.42l4.1,.22v5.76h-17.14v-5.47l2.38-.22c.72-.1,1.25-.3,1.58-.61s.5-.9,.5-1.76Z"/><path class="e" d="M205.88,21.43c3.6,0,6.46,.88,8.57,2.63,2.11,1.75,3.17,4.21,3.17,7.38,0,2.11-.46,3.97-1.37,5.58-.91,1.61-2.04,2.87-3.38,3.78-1.34,.91-2.98,1.66-4.9,2.23-3.22,.96-6.84,1.44-10.87,1.44,.14,2.54,.94,4.6,2.38,6.16,1.44,1.56,3.65,2.34,6.62,2.34s5.95-1.06,8.93-3.17l2.74,5.83c-.96,.86-2.58,1.75-4.86,2.66-2.28,.91-4.88,1.37-7.81,1.37-5.86,0-10.15-1.62-12.89-4.86-2.74-3.24-4.1-7.69-4.1-13.36s1.56-10.42,4.68-14.26c3.12-3.84,7.49-5.76,13.1-5.76Zm-3.28,16.45c1.75-.31,3.37-1.01,4.86-2.09,1.49-1.08,2.23-2.36,2.23-3.85,0-2.93-1.44-4.39-4.32-4.39-2.69,0-4.75,1.07-6.19,3.2-1.44,2.14-2.23,4.69-2.38,7.67,2.11-.05,4.04-.23,5.8-.54Z"/><path class="e" d="M227.12,50.67V30.72c0-.77-.13-1.31-.4-1.62-.26-.31-.73-.49-1.4-.54l-3.02-.22v-5.83h12.17v5.4c.86-1.87,2.21-3.42,4.03-4.64s3.92-1.84,6.3-1.84,4.64,.53,6.8,1.58v10.73l-6.7,.5v-3.31c0-.96-.24-1.56-.72-1.8-.53-.24-1.18-.36-1.94-.36-1.92,0-3.49,.68-4.72,2.05-1.22,1.37-1.84,3.11-1.84,5.22v16.7l6.26,.29v5.69h-19.3v-5.47l2.38-.22c.72-.1,1.25-.3,1.58-.61,.33-.31,.5-.9,.5-1.76Z"/><g><path class="e" d="M29.7,28.56v24.12l6.05,.29v5.76H16.66v-5.47l2.38-.22c.72-.1,1.25-.3,1.58-.61,.33-.31,.5-.9,.5-1.76V19.78c0-4.7,1.08-8.09,3.24-10.15,2.02-1.97,4.97-2.95,8.86-2.95s7.34,.84,10.37,2.52l-2.09,5.76c-2.3-1.2-4.46-1.8-6.48-1.8s-3.41,.49-4.18,1.48c-.77,.98-1.15,2.48-1.15,4.5v3.38"/><g><path class="c" d="M5.57,32.7l6.26,.77s1.62,4.25,6.75,4.66c0,0,.39-2.13,.98-2.23,.59-.1,5.96,2.18,6.67,2.03s11.36-1.46,18.62-13.56l-7.86-.02-2.97,1.63-.66-1.93s-1.87-.57-10.14,.58l-3.33,3.44-1.16-1.36s-2.39,2.45-6.91,6.75"/><path class="b" d="M36.99,28.02s-12.79,7.54-31.18,2.96"/><ellipse class="d" cx="42.47" cy="33.24" rx=".28" ry=".25"/></g></g></svg>